<?xml version="1.0" encoding="iso-8859-1"?>
<!-- Generator: Adobe Illustrator 19.0.0, SVG Export Plug-In . SVG Version: 6.00 Build 0)  -->
<svg version="1.1" id="Capa_1" xmlns="http://www.w3.org/2000/svg" xmlns:xlink="http://www.w3.org/1999/xlink" x="0px" y="0px"
	 viewBox="0 0 512 512" style="enable-background:new 0 0 512 512;" xml:space="preserve">
<path style="fill:#AEA8AF;" d="M288.065,272.032l-16.032,24.048l-16.033-24.048V15.516c0-4.427,3.589-8.016,8.016-8.016h16.032
	c4.427,0,8.016,3.589,8.016,8.016v256.516H288.065z"/>
<rect x="255.999" y="239.97" style="fill:#9C969E;" width="32.06" height="24.05"/>
<rect x="167.82" y="440.37" style="fill:#6F6571;" width="112.23" height="32.06"/>
<path style="fill:#867E88;" d="M167.822,400.29V119.726c-26.563,0-48.097,21.534-48.097,48.097V400.29
	c0,22.136,17.945,40.081,40.081,40.081H289.44c4.252,0,8.33-1.689,11.337-4.696l35.385-35.385L167.822,400.29L167.822,400.29z"/>
<rect x="199.889" y="119.73" style="fill:#9C969E;" width="40.08" height="64.13"/>
<path style="fill:#C9C6CA;" d="M304.096,71.629h-64.129c-4.427,0-8.016,3.589-8.016,8.016v113.893c0,4.223,0.417,8.436,1.245,12.577
	l5.482,27.409c0.749,3.747,4.039,6.444,7.861,6.444h50.985c3.821,0,7.111-2.697,7.861-6.444l5.482-27.409
	c0.828-4.141,1.245-8.354,1.245-12.577V79.645C312.113,75.218,308.523,71.629,304.096,71.629z"/>
<path style="fill:#867E88;" d="M392.273,151.79h-16.032c-8.854,0-16.032-7.178-16.032-16.032l0,0
	c0-8.854,7.178-16.032,16.032-16.032h16.032c8.854,0,16.032,7.178,16.032,16.032l0,0C408.306,144.612,401.129,151.79,392.273,151.79
	z"/>
<g>
	<path style="fill:#B7B2B8;" d="M336.161,408.306H159.805c-4.427,0-8.016-3.589-8.016-8.016v-16.032
		c0-4.427,3.589-8.016,8.016-8.016h176.355c4.427,0,8.016,3.589,8.016,8.016v16.032
		C344.177,404.717,340.588,408.306,336.161,408.306z"/>
	<path style="fill:#B7B2B8;" d="M270.743,233.524l-5.483-27.409c-0.828-4.141-1.245-8.354-1.245-12.577V71.629h-24.048
		c-4.427,0-8.016,3.589-8.016,8.016v113.893c0,4.223,0.417,8.436,1.245,12.577l5.483,27.409c0.749,3.747,4.039,6.444,7.861,6.444
		h32.065C274.783,239.968,271.492,237.27,270.743,233.524z"/>
	<path style="fill:#B7B2B8;" d="M191.87,344.177h-16.032c-4.427,0-8.016-3.589-8.016-8.016V103.694c0-4.427,3.589-8.016,8.016-8.016
		h16.032c4.427,0,8.016,3.589,8.016,8.016v232.468C199.886,340.588,196.298,344.177,191.87,344.177z"/>
	<path style="fill:#B7B2B8;" d="M328.145,472.435H119.726c-8.854,0-16.032,7.178-16.032,16.032V504.5h240.484v-16.032
		C344.177,479.613,337,472.435,328.145,472.435z"/>
</g>
<path d="M392.273,112.226h-16.033c-10.354,0-19.16,6.724-22.3,16.033h-34.329V79.645c0-8.556-6.96-15.516-15.516-15.516h-8.532
	V15.516C295.564,6.96,288.604,0,280.048,0h-16.032c-8.556,0-15.516,6.96-15.516,15.516v48.613h-8.532
	c-8.556,0-15.516,6.96-15.516,15.516v32.581h-17.064v-8.532c0-8.556-6.96-15.516-15.516-15.516h-16.032
	c-8.556,0-15.516,6.96-15.516,15.516v9.053c-27.12,3.675-48.097,26.965-48.097,55.077v232.468c0,26.236,21.345,47.581,47.581,47.581
	h0.516v17.064h-40.597c-12.976,0-23.532,10.557-23.532,23.532V504.5c0,4.142,3.358,7.5,7.5,7.5h240.484c4.142,0,7.5-3.358,7.5-7.5
	v-16.032c0-12.976-10.557-23.532-23.532-23.532h-40.597v-17.064h1.892c6.285,0,12.194-2.448,16.64-6.893l25.172-25.172h4.91
	c8.556,0,15.516-6.96,15.516-15.516v-16.032c0-8.556-6.96-15.517-15.516-15.517H175.322v-17.091
	c0.173,0.006,0.342,0.026,0.516,0.026h16.032c8.556,0,15.516-6.96,15.516-15.516V191.355h17.064v2.183
	c0,4.707,0.468,9.433,1.391,14.047l5.482,27.41c1.446,7.227,7.845,12.473,15.215,12.473h1.96v24.564c0,1.48,0.438,2.928,1.26,4.16
	l14.772,22.159v45.826c0,4.142,3.358,7.5,7.5,7.5s7.5-3.358,7.5-7.5v-45.826l14.772-22.159c0.821-1.232,1.26-2.68,1.26-4.16v-24.564
	h1.961c7.37,0,13.769-5.246,15.215-12.473l5.482-27.409c0.923-4.615,1.391-9.341,1.391-14.047v-50.28h34.329
	c3.139,9.308,11.946,16.032,22.3,16.032h16.033c12.976,0,23.532-10.557,23.532-23.533
	C415.807,122.782,405.25,112.226,392.273,112.226z M263.5,15.516c0-0.285,0.231-0.516,0.516-0.516h16.032
	c0.285,0,0.516,0.231,0.516,0.516v48.613H263.5V15.516z M272.548,464.936h-56.629c-4.142,0-7.5,3.358-7.5,7.5s3.358,7.5,7.5,7.5
	h112.226c4.705,0,8.532,3.828,8.532,8.532V497H111.193v-8.532c0-4.705,3.828-8.532,8.532-8.532h64.127c4.142,0,7.5-3.358,7.5-7.5
	s-3.358-7.5-7.5-7.5h-8.53v-17.064h97.226L272.548,464.936L272.548,464.936z M336.677,384.258v16.032
	c0,0.285-0.231,0.516-0.516,0.516H159.807c-0.285,0-0.516-0.231-0.516-0.516v-16.032c0-0.285,0.231-0.517,0.516-0.517h176.354
	C336.446,383.742,336.677,383.974,336.677,384.258z M192.386,336.161c0,0.285-0.231,0.516-0.516,0.516h-16.032
	c-0.285,0-0.516-0.231-0.516-0.516V167.824c0-4.142-3.358-7.5-7.5-7.5s-7.5,3.358-7.5,7.5v200.917h-0.516
	c-8.556,0-15.516,6.961-15.516,15.517v16.032c0,8.556,6.96,15.516,15.516,15.516h150.232l-14.565,14.565
	c-1.612,1.612-3.755,2.5-6.034,2.5H159.807c-17.965,0-32.581-14.616-32.581-32.581V167.823c0-19.822,14.284-36.361,33.097-39.891
	v7.826c0,4.142,3.358,7.5,7.5,7.5s7.5-3.358,7.5-7.5v-32.064c0-0.285,0.231-0.516,0.516-0.516h16.032
	c0.285,0,0.516,0.231,0.516,0.516L192.386,336.161L192.386,336.161z M207.386,176.355v-49.129h17.064v49.129H207.386z
	 M280.564,269.761l-8.532,12.798l-8.532-12.798v-22.293h17.064L280.564,269.761L280.564,269.761z M304.613,193.538
	c0,3.721-0.37,7.458-1.1,11.106l-5.482,27.409c-0.048,0.24-0.261,0.415-0.506,0.415h-50.985c-0.246,0-0.458-0.175-0.506-0.415
	l-5.482-27.409c-0.729-3.648-1.1-7.385-1.1-11.106V79.645c0-0.285,0.231-0.516,0.516-0.516h64.129c0.285,0,0.516,0.231,0.516,0.516
	L304.613,193.538L304.613,193.538z M392.273,144.291h-16.033c-4.705,0-8.532-3.828-8.532-8.533s3.828-8.532,8.532-8.532h16.033
	c4.705,0,8.532,3.828,8.532,8.533C400.807,140.463,396.979,144.291,392.273,144.291z"/>
<g>
</g>
<g>
</g>
<g>
</g>
<g>
</g>
<g>
</g>
<g>
</g>
<g>
</g>
<g>
</g>
<g>
</g>
<g>
</g>
<g>
</g>
<g>
</g>
<g>
</g>
<g>
</g>
<g>
</g>
</svg>
